<svg width="134" height="134" viewBox="0 0 134 134" fill="none" xmlns="http://www.w3.org/2000/svg">
<path d="M67 0L67.5049 58.1704L74.6374 0.436722L68.5081 58.2855L82.1753 1.7412L69.4916 58.5142L89.5153 3.89643L70.4427 58.8536L96.5618 6.87431L71.3489 59.2991L103.223 10.636L72.1984 59.8451L109.412 15.1325L72.9801 60.4843L115.048 20.3052L73.6839 61.2084L120.057 26.0866L74.3005 62.0081L124.375 32.4014L74.8219 62.8728L127.945 39.1672L75.2414 63.7913L130.721 46.2959L75.5534 64.7517L132.666 53.6944L75.754 65.7414L133.754 61.2665L75.8404 66.7475L133.973 68.9133L75.8116 67.7568L133.318 76.5351L75.6678 68.7563L131.799 84.0326L75.4111 69.7329L129.435 91.3081L75.0448 70.6739L126.257 98.2667L74.5735 71.567L122.307 104.818L74.0036 72.4006L117.635 110.876L73.3423 73.1637L112.304 116.362L72.5984 73.8465L106.382 121.204L71.7814 74.44L99.9461 125.34L70.9022 74.9366L93.0811 128.715L69.972 75.3297L85.8761 131.286L69.0031 75.6142L78.425 133.019L68.0081 75.7864L70.825 133.891L67 75.844L63.175 133.891L65.9919 75.7864L55.575 133.019L64.9969 75.6142L48.1239 131.286L64.028 75.3297L40.9189 128.715L63.0978 74.9366L34.0539 125.34L62.2186 74.44L27.6184 121.204L61.4016 73.8465L21.6963 116.362L60.6577 73.1637L16.3648 110.876L59.9964 72.4006L11.6934 104.818L59.4264 71.567L7.74299 98.2667L58.9552 70.6739L4.56511 91.3081L58.5889 69.7329L2.20116 84.0326L58.3321 68.7563L0.681961 76.5351L58.1884 67.7568L0.0273209 68.9133L58.1596 66.7475L0.245773 61.2665L58.246 65.7414L1.33447 53.6944L58.4466 64.7517L3.27921 46.2959L58.7586 63.7913L6.05466 39.1672L59.1781 62.8728L9.62461 32.4014L59.6995 62.0081L13.9426 26.0866L60.3162 61.2084L18.9522 20.3052L61.0199 60.4843L24.5882 15.1325L61.8016 59.8451L30.7771 10.636L62.6511 59.2991L37.4382 6.87431L63.5573 58.8536L44.4847 3.89643L64.5084 58.5142L51.8247 1.7412L65.4919 58.2855L59.3626 0.436722L66.4951 58.1704L67 0Z" fill="#E6F0EF"/>
</svg>
